Coordinates
version=1
nRows=7
nColumns=40
inDegrees=yes

Units are S.I. units (second, meters, Newtons, ...)
Angles are in degrees.

endheader
time	pelvis_tilt	pelvis_list	pelvis_rotation	pelvis_tx	pelvis_ty	pelvis_tz	hip_flexion_r	hip_adduction_r	hip_rotation_r	knee_angle_r	knee_angle_r_beta	ankle_angle_r	subtalar_angle_r	mtp_angle_r	hip_flexion_l	hip_adduction_l	hip_rotation_l	knee_angle_l	knee_angle_l_beta	ankle_angle_l	subtalar_angle_l	mtp_angle_l	lumbar_extension	lumbar_bending	lumbar_rotation	arm_flex_r	arm_add_r	arm_rot_r	elbow_flex_r	pro_sup_r	wrist_flex_r	wrist_dev_r	arm_flex_l	arm_add_l	arm_rot_l	elbow_flex_l	pro_sup_l	wrist_flex_l	wrist_dev_l
     11.50750000	     -1.92596436	     -2.55363036	     -2.34858591	      0.70794945	      0.93334133	      0.41827176	     31.77221644	     -4.26461862	     -5.72802510	     57.94830995	     57.94830995	      2.15370087	    -18.50632290	      7.72920683	      9.05007742	     -2.58943511	     -5.68150329	     19.70021050	     19.70021050	     14.66967851	    -10.44146361	     -1.53862657	    -10.20891436	      4.42345276	     -0.22819713	    -10.02179128	    -13.55183076	     -7.52614266	     27.82965509	     46.27908221	      0.00000000	      0.00000000	      0.00013293	    -15.78398541	      0.80959904	     55.06490300	     46.48110776	      0.00000000	      0.00000000
     11.52100000	     -2.10869729	     -2.73107794	     -2.66606162	      0.70685637	      0.93320719	      0.41864944	     31.95605641	     -3.76200167	     -5.75598917	     54.60721999	     54.60721999	      2.73010728	    -18.09645304	      7.72590135	      8.67026405	     -2.78505191	     -5.87937370	     19.45144540	     19.45144540	     14.86449199	    -10.47627792	     -1.52750530	    -10.14466362	      4.64446945	     -0.26799968	     -9.67538117	    -13.41018766	     -7.53681191	     27.99899526	     46.27547917	      0.00000000	      0.00000000	      0.64568729	    -15.87694491	      0.80320048	     55.54968234	     46.49347968	      0.00000000	      0.00000000
     11.53450000	     -2.13388977	     -2.89903397	     -2.96825155	      0.70587381	      0.93317125	      0.41907823	     31.69273550	     -3.33630399	     -5.92734967	     50.71724634	     50.71724634	      2.33881513	    -17.80017714	      4.86225787	      8.12890330	     -3.01377747	     -6.31045852	     19.26136202	     19.26136202	     15.22628217	    -10.07869041	     -1.53176842	    -10.32904937	      4.82957587	     -0.35359571	     -9.30922110	    -13.26219296	     -7.95570674	     28.37299573	     46.29239759	      0.00000000	      0.00000000	      0.75680601	    -16.28432371	      1.30948935	     57.63734983	     46.50018903	      0.00000000	      0.00000000
     11.54800000	     -2.29290230	     -3.06887172	     -3.26371028	      0.70483856	      0.93286094	      0.41960588	     31.57805516	     -2.89275636	     -6.09535417	     46.83663698	     46.83663698	      2.86613172	    -16.88375935	      4.77263221	      7.74004201	     -3.20472233	     -6.46929546	     19.06095980	     19.06095980	     15.44361490	    -10.12388552	     -1.54241975	    -10.32142653	      5.04848570	     -0.32210024	     -8.82924698	    -13.13116436	     -7.95085652	     28.62221960	     46.28489008	      0.00000000	      0.00000000	      1.48416025	    -16.32886969	      1.32947846	     58.18825298	     46.51345064	      0.00000000	      0.00000000
     11.56150000	     -2.40744106	     -3.16880804	     -3.54813071	      0.70391818	      0.93244833	      0.42019696	     31.16641670	     -2.58024672	     -6.42650569	     42.49219559	     42.49219559	      2.26732002	    -15.96311312	      1.39752947	      7.32603987	     -3.36201231	     -6.84070034	     18.92770790	     18.92770790	     15.79232053	     -9.82960122	     -1.59055202	    -10.39907219	      5.17796896	     -0.34663292	     -8.41739483	    -12.96021097	     -8.17239038	     29.31703410	     46.26952326	      0.00000000	      0.00000000	      1.76134497	    -16.74176251	      1.93189598	     60.10128458	     46.52352915	      0.00000000	      0.00000000
     11.57500000	     -2.59010080	     -3.27503511	     -3.80161413	      0.70298151	      0.93196088	      0.42083095	     30.82631846	     -2.22940506	     -6.73908634	     38.25305532	     38.25305532	      2.70272336	    -14.26238813	      1.44486915	      6.97886370	     -3.48869918	     -6.99681986	     18.75568201	     18.75568201	     15.99594645	     -9.86946607	     -1.64485318	    -10.39798397	      5.37336307	     -0.30612814	     -7.86651533	    -12.84732222	     -8.14612878	     29.58681194	     46.25989353	      0.00000000	      0.00000000	      2.52781823	    -16.71281138	      1.96337842	     60.60972436	     46.53874251	      0.00000000	      0.00000000
     11.58850000	     -2.83552143	     -3.34119707	     -4.07058207	      0.70221874	      0.93123808	      0.42171230	     30.46433927	     -1.90289094	     -7.12704736	     34.00511022	     34.00511022	      3.12626144	    -12.20693216	      1.49887034	      6.66222587	     -3.59542439	     -7.22160593	     18.54342296	     18.54342296	     16.22836225	     -9.84413865	     -1.73908255	    -10.25933477	      5.46777802	     -0.22263095	     -7.26642363	    -12.63009590	     -8.11325989	     29.94776278	     46.24613262	      0.00000000	      0.00000000	      3.25476343	    -16.74322578	      2.03289145	     61.26362706	     46.55178253	      0.00000000	      0.00000000
